<svg id="Warstwa_1" data-name="Warstwa 1" xmlns="http://www.w3.org/2000/svg" xmlns:xlink="http://www.w3.org/1999/xlink" viewBox="0 0 1920 1080"><defs><style>.cls-1{fill:none;}.cls-2{fill:#f4b68c;}.cls-3{fill:#3f434c;}.cls-4{fill:#51a1a7;}.cls-5{fill:#ffd4b7;}.cls-6{fill:#d8cfb8;}.cls-7{fill:#efe7d0;}.cls-8{fill:#fcf8eb;}.cls-9{fill:#db9c1d;}.cls-10{fill:#d06a47;}.cls-11{fill:#fff;}.cls-12{fill:#92bea3;}.cls-13{fill:#eaa732;}.cls-14{fill:#737861;}.cls-15{fill:#acdad7;}.cls-16{fill:#784057;}.cls-17{fill:#f09c72;}.cls-18{fill:#b8ddc5;}.cls-19{clip-path:url(#clip-path);}.cls-20{fill:#d68472;}.cls-21{fill:#606060;}</style><clipPath id="clip-path"><path class="cls-1" d="M603.17,804H402.33V351.69H603.17Z"/></clipPath></defs><path class="cls-2" d="M270.25,1024.06s-1.54,11.92.19,15.15,22.5,10.47,22.5,10.47l.56,6.44H250.85a5.34,5.34,0,0,1-5.26-5.12,25.65,25.65,0,0,1,2.23-10.67c3.9-8.86-2.54-16.27-1.16-18.84S270.09,1016,270.25,1024.06Z"/><path class="cls-3" d="M273.22,1045.35s-15,.34-19.15-.68-7.41-4.05-8.43-2.14-2.38,14,1.11,14.56,25.79,1,26.47-.49S273.22,1045.35,273.22,1045.35Z"/><path class="cls-3" d="M272.46,1041.67c-.23,3.34-1,11.84-3.48,14.93h32.44c1.12,0,1.85-1.45,1.63-2.56-.73-3.57-5.22-10.75-29-13.69A1.42,1.42,0,0,0,272.46,1041.67Z"/><path class="cls-4" d="M246.87,1055.52h55.76l.19,2.13a.91.91,0,0,1-.92,1H247.15a1.51,1.51,0,0,1-1.47-1.35l0-.45A1.22,1.22,0,0,1,246.87,1055.52Z"/><path class="cls-2" d="M116.87,997.73s-6.19,10.3-5.9,13.95,16.39,18.63,16.39,18.63l-2.08,6.12-39-17.14a5.33,5.33,0,0,1-2.76-6.8,25.49,25.49,0,0,1,6.33-8.87c7.13-6.55,4.21-15.92,6.52-17.73S120,990.27,116.87,997.73Z"/><path class="cls-3" d="M111,1018.42s-13.85-5.71-17.26-8.32-5.15-6.69-6.86-5.35-7.81,11.88-4.83,13.78,23.22,11.25,24.43,10.19S111,1018.42,111,1018.42Z"/><path class="cls-3" d="M111.82,1014.74c-1.55,3-5.65,10.46-9.19,12.28l29.71,13c1,.45,2.28-.59,2.52-1.69.77-3.56-.46-11.95-21-24.18A1.42,1.42,0,0,0,111.82,1014.74Z"/><path class="cls-4" d="M82.83,1017.14l51.06,22.41-.69,2a.91.91,0,0,1-1.25.55l-50.13-22a1.5,1.5,0,0,1-.8-1.82l.14-.42A1.22,1.22,0,0,1,82.83,1017.14Z"/><path class="cls-2" d="M251.05,554.82c-12.43-12.77-39.87-5.05-38.06,1.19,2.34,8,36.33,93.87,99.51,99.21a25.75,25.75,0,0,0,7.84-.48L310.58,621C302,625,265.41,569.58,251.05,554.82Z"/><path class="cls-5" d="M211.18,549.77c-.72,4.86,15.48,42.53,38.2,68.86,7.8-2.75,23.45-9.39,35.31-21.55-12.5-15.65-26.12-34.53-33.64-42.26C238.62,542.05,212.9,538.09,211.18,549.77Z"/><path class="cls-2" d="M337.72,557.44c-9.76,15.93-24,61.91-27.06,63.49l-.08,0,9.76,33.78c35.21-7.89,30.94-92.82,29.59-96.65C346.48,548.37,340.59,552.75,337.72,557.44Z"/><rect class="cls-6" x="439.07" y="339.45" width="225.33" height="689.36" rx="11.27"/><rect class="cls-7" x="390.08" y="339.45" width="225.33" height="689.36" rx="11.27"/><path class="cls-6" d="M603.17,804H402.33V351.69H603.17Z"/><rect class="cls-6" x="257.33" y="351.69" width="126.87" height="452.3"/><rect class="cls-7" x="275.46" y="351.69" width="126.87" height="452.3"/><rect class="cls-6" x="282.56" y="372.76" width="112.67" height="89.42"/><rect class="cls-6" x="282.56" y="525.88" width="112.67" height="89.42"/><rect class="cls-6" x="282.56" y="678.99" width="112.67" height="89.42"/><rect class="cls-7" x="402.33" y="445.4" width="205.25" height="6.13"/><rect class="cls-7" x="402.33" y="597.72" width="205.25" height="6.13"/><rect class="cls-7" x="402.33" y="750.04" width="205.25" height="6.13"/><path class="cls-8" d="M304.79,450c-.37,6.26-2.81,11.21-8.91,10.85s-7.94-5.57-7.56-11.83,4.36-11.13,8.91-10.85S305.16,443.7,304.79,450Z"/><path class="cls-8" d="M326,450c-.37,6.27-2.82,11.22-8.91,10.85s-7.94-5.57-7.57-11.83,4.37-11.12,8.92-10.85S326.39,443.7,326,450Z"/><path class="cls-8" d="M347.25,450c-.38,6.26-2.82,11.21-8.92,10.85s-7.93-5.57-7.56-11.83,4.36-11.12,8.91-10.85S347.62,443.7,347.25,450Z"/><ellipse class="cls-8" cx="360.24" cy="449.46" rx="11.36" ry="8.25" transform="translate(-109.85 782.35) rotate(-86.59)"/><ellipse class="cls-8" cx="381.46" cy="449.46" rx="11.36" ry="8.25" transform="translate(-89.87 803.54) rotate(-86.59)"/><polygon class="cls-7" points="282.56 462.18 287.21 454.69 390.08 454.69 395.23 462.18 282.56 462.18"/><rect class="cls-9" x="346.12" y="565.27" width="19.54" height="50.03"/><path class="cls-9" d="M357.38,549.52h-3c0,9-4.75,11.56-4.75,11.56v5.17h12.47v-5.17S357.38,558.52,357.38,549.52Z"/><rect class="cls-10" x="370.34" y="565.27" width="19.54" height="50.03"/><path class="cls-10" d="M381.6,549.52h-3c0,9-4.74,11.56-4.74,11.56v5.17h12.46v-5.17S381.6,558.52,381.6,549.52Z"/><path class="cls-7" d="M329.53,557.73c.07-2.43,0-7,0-7l-10.77.13s.38,7.67-.65,10.4c-.39,1-.95,2.46-1.56,4.06l14.17-.18A54.94,54.94,0,0,1,329.53,557.73Z"/><path class="cls-3" d="M330.73,565.15l-14.17.18c-1,2.58-2.07,5.6-2.75,8.13-1.12,4.09-.08,17.47-.21,22s-.64,14.19-.9,17.1,19.6,3.54,20,1.5.12-21.75.58-24,.34-11.46-.18-14.08C332.77,574.54,331.64,569.58,330.73,565.15Z"/><path class="cls-10" d="M330.49,548.59a3.07,3.07,0,0,0-2.18-2.89c-1.85-.56-9-.76-9.51.12s-2.1,2.55,0,5l10.77-.13S330.59,549.36,330.49,548.59Z"/><path class="cls-10" d="M313.6,593.45l19.42.32a32,32,0,0,1,.22-3.66c.38-1.89.36-8.73,0-12.4l-20,.25C313.17,582.73,313.53,589.39,313.6,593.45Z"/><polygon class="cls-4" points="300.54 703.06 300.11 768.15 338.78 768.41 339.21 703.32 332.84 687.14 306.95 686.97 300.54 703.06"/><path class="cls-11" d="M312.89,769h0a.78.78,0,0,1-.77-.79l.43-64.92-5.4-13.89a.78.78,0,1,1,1.45-.56l5.46,14a.74.74,0,0,1,.05.29l-.43,65.07A.78.78,0,0,1,312.89,769Z"/><path class="cls-12" d="M307,687v-1.61a1.23,1.23,0,0,1,1.25-1.23l23.4.15a1.26,1.26,0,0,1,1.24,1.26v1.6Z"/><path class="cls-11" d="M338.57,704.1h0l-25.24-.17a.8.8,0,0,1-.78-.79.77.77,0,0,1,.78-.77h0l25.24.17a.78.78,0,0,1,0,1.56Z"/><path class="cls-8" d="M329.86,692.71a4,4,0,1,1-4.62-3.54A4.13,4.13,0,0,1,329.86,692.71Z"/><rect class="cls-8" x="373.53" y="715.05" width="4.89" height="5.08" transform="translate(646.26 -46.11) rotate(47.14)"/><path class="cls-9" d="M347.47,768.22v-53.3h20.7a5,5,0,0,1,3.64,1.61l5.24,5.77a4.91,4.91,0,0,1,1.28,3.3v42.81Z"/><path class="cls-13" d="M350.22,719.83v42.74a1.77,1.77,0,0,0,1.77,1.77h22.12a1.77,1.77,0,0,0,1.77-1.77V726.43a1.79,1.79,0,0,0-.52-1.25l-6.43-6.43a1.74,1.74,0,0,0-1.23-.51l-15.7-.17A1.76,1.76,0,0,0,350.22,719.83Z"/><path class="cls-7" d="M501.92,501.28s-1.89-7.89-1.42-9.47,40.12-.79,43.6-.79,42.49.31,42.8.79.16,46.16,0,49.38-1.42,31.65-1.1,34.81-5.85,4-11.22,4.21-71.45-.4-74-1.66,1.5-9.34,1.73-10.13S492.29,529.56,501.92,501.28Z"/><path class="cls-14" d="M527.63,561.2a1.28,1.28,0,0,1,0-.74s-9.62-11.25,2-20.53,17.63,8,16.15,13.32-6.83,7.59-6.83,7.59,0,7.63-7.88,4.73A5.34,5.34,0,0,1,527.63,561.2Z"/><path class="cls-14" d="M563.52,528.18a1.23,1.23,0,0,1,0-.74s-9.62-11.25,2-20.53,17.63,8,16.15,13.32-6.83,7.58-6.83,7.58,0,7.64-7.87,4.74A5.35,5.35,0,0,1,563.52,528.18Z"/><path class="cls-14" d="M570.75,554.78a1,1,0,0,1-.14-.57s-9.79-6.41-3-16,15.14,2.15,15.2,6.54-3.5,7.26-3.5,7.26,1.69,5.8-4.93,5.34A4.22,4.22,0,0,1,570.75,554.78Z"/><path class="cls-14" d="M513.46,570.21a1,1,0,0,1-.14-.57s-9.79-6.41-3-16,15.14,2.15,15.2,6.54-3.5,7.26-3.5,7.26,1.69,5.8-4.93,5.34A4.22,4.22,0,0,1,513.46,570.21Z"/><path class="cls-14" d="M516.28,526.48c-.12-.27-.18-.48-.14-.56s-9.79-6.41-3-16,15.14,2.15,15.2,6.54-3.5,7.26-3.5,7.26,1.69,5.8-4.93,5.33A4.2,4.2,0,0,1,516.28,526.48Z"/><path class="cls-14" d="M508.27,541.28c.14-.35.27-.6.38-.64s-3.16-14.46,11.45-17.16,11.77,15.36,7.94,19.37-9.61,3.46-9.61,3.46-3.6,6.73-9.17.45A5.33,5.33,0,0,1,508.27,541.28Z"/><path class="cls-14" d="M532,531.38c0-.37.06-.65.15-.72s-7.74-12.62,5.18-20,16.16,10.65,13.86,15.69-7.94,6.42-7.94,6.42-1.19,7.55-8.51,3.44A5.35,5.35,0,0,1,532,531.38Z"/><path class="cls-14" d="M545.11,557.34c.28-.25.51-.4.63-.39s3.9-14.28,18.1-9.89,3.3,19.06-2,20.84-10.11-1.39-10.11-1.39-6.32,4.29-8.34-3.85A5.35,5.35,0,0,1,545.11,557.34Z"/><path class="cls-14" d="M554,549.27c-.21-.31-.34-.55-.31-.66s-13.76-5.47-7.82-19.1,19.31-1.16,20.49,4.26-2.5,9.9-2.5,9.9,3.56,6.75-4.76,7.85A5.33,5.33,0,0,1,554,549.27Z"/><path class="cls-10" d="M587,495.3l-86.16.92c.16.87.33,1.75.5,2.52l85.69-.71C587,497,587,496.1,587,495.3Z"/><path class="cls-9" d="M423.64,569.81h-3.43V558.05a1.72,1.72,0,0,1,1.1-1.6l15.84-6.12a1.68,1.68,0,0,1,1.58.18,1.71,1.71,0,0,1,.75,1.42v10.61h-3.43v-8.11l-12.41,4.8Z"/><path class="cls-12" d="M418.59,562.5v31.11a4.11,4.11,0,0,0,4.11,4.11H481a12.88,12.88,0,0,0,5.49-1.24l14.46-6.88a4.11,4.11,0,0,0,2.34-3.71V555.83Z"/><path class="cls-4" d="M481.9,563.13H418.32a.49.49,0,0,1-.16-1l18.64-6.4a7.3,7.3,0,0,1,2.36-.39H504a.43.43,0,0,1,.14.84L486,562.45A12.62,12.62,0,0,1,481.9,563.13Z"/><path class="cls-9" d="M489.12,569.81h-3.43V558.05a1.71,1.71,0,0,1,1.09-1.6l15.84-6.12a1.72,1.72,0,0,1,2.34,1.6v10.61h-3.43v-8.11l-12.41,4.8Z"/><path class="cls-9" d="M514,569.81h-3.43V558.05a1.71,1.71,0,0,1,1.09-1.6l15.84-6.12a1.7,1.7,0,0,1,2.33,1.6v10.61H526.4v-8.11L514,559.23Z"/><path class="cls-12" d="M508.94,562.5v31.11a4.11,4.11,0,0,0,4.11,4.11h58.24a12.85,12.85,0,0,0,5.49-1.24l14.47-6.88a4.11,4.11,0,0,0,2.34-3.71V555.83Z"/><path class="cls-4" d="M572.25,563.13H508.66a.49.49,0,0,1-.16-1l18.64-6.4a7.32,7.32,0,0,1,2.37-.39h64.83a.43.43,0,0,1,.14.84l-18.14,6.23A12.67,12.67,0,0,1,572.25,563.13Z"/><path class="cls-9" d="M579.46,569.81H576V558.05a1.72,1.72,0,0,1,1.1-1.6L593,550.33a1.7,1.7,0,0,1,1.59.18,1.73,1.73,0,0,1,.74,1.42v10.61h-3.43v-8.11l-12.41,4.8Z"/><path class="cls-9" d="M440.43,538.76h-2.72v-9.33a1.37,1.37,0,0,1,.87-1.27l12.57-4.86a1.36,1.36,0,0,1,1.85,1.27V533h-2.72v-6.43l-9.85,3.8Z"/><path class="cls-12" d="M436.43,533v24.69a3.26,3.26,0,0,0,3.25,3.26h30.95a10.1,10.1,0,0,0,4.35-1l11.48-5.46a3.24,3.24,0,0,0,1.86-2.94V527.67Z"/><path class="cls-4" d="M471.38,533.46H436.21a.39.39,0,0,1-.13-.76l14.79-5.08a6,6,0,0,1,1.88-.31h36.17a.34.34,0,0,1,.11.67l-14.4,4.94A9.94,9.94,0,0,1,471.38,533.46Z"/><path class="cls-9" d="M477.11,538.76h-2.72v-9.33a1.35,1.35,0,0,1,.87-1.27l12.57-4.86a1.36,1.36,0,0,1,1.85,1.27V533H487v-6.43l-9.85,3.8Z"/><path class="cls-15" d="M408.13,406.32v34.52a4.56,4.56,0,0,0,4.55,4.56h84.87a14.09,14.09,0,0,0,6.09-1.38l16.05-7.64a4.54,4.54,0,0,0,2.6-4.11V398.92Z"/><path class="cls-4" d="M498.61,407H407.82a.54.54,0,0,1-.17-1.06l20.68-7.1a8.06,8.06,0,0,1,2.63-.44h92.17a.48.48,0,0,1,.15.93l-20.13,6.92A14,14,0,0,1,498.61,407Z"/><circle class="cls-3" cx="486.01" cy="426.93" r="6.78" transform="translate(-41.16 801.85) rotate(-76.72)"/><path class="cls-4" d="M448.22,407s1.79,3.06,7.84,2.9,6.69-2.9,6.69-2.9S455.32,404.21,448.22,407Z"/><circle class="cls-3" cx="506.47" cy="424.15" r="5.35" transform="translate(6.66 856.14) rotate(-80.78)"/><circle class="cls-3" cx="423.22" cy="430.47" r="6.32" transform="translate(-92.97 743.47) rotate(-76.72)"/><path class="cls-16" d="M418.86,443.67a3.66,3.66,0,0,1-3.43-2.9c-.56-2.72-.52-6.76,3.8-8.82,6.86-3.27,14,3.18,14,3.18s1.47-3.72,4.41-4.1,6.29,3.45,6.29,3.45,1-11.76,13.88-10.78,11.1,8.17,11.1,8.17,5.88-4.66,11-4.25a15.76,15.76,0,0,1,8.49,3.35s1.47-9.06,7.84-8.82a12.31,12.31,0,0,1,9.47,5.06s5.23-7.39,9.06-7.06c7,.61,4.17,12.13,4.09,13.52s-9.23,4.57-12.82,6.44-5.39,3.11-15.51,3.34C482.6,443.64,433.61,444.37,418.86,443.67Z"/><circle class="cls-3" cx="443.52" cy="430.07" r="7.47" transform="translate(-130.82 202.46) rotate(-22.5)"/><circle class="cls-3" cx="469.36" cy="432.28" r="5.35" transform="translate(-168.19 458.5) rotate(-45)"/><circle class="cls-3" cx="458.66" cy="435.95" r="5.35" transform="translate(-173.92 452.01) rotate(-45)"/><circle class="cls-3" cx="494.63" cy="435.42" r="5.35" transform="matrix(0.16, -0.99, 0.99, 0.16, -14.4, 853.91)"/><circle class="cls-3" cx="509.57" cy="430.89" r="3.96" transform="translate(-26.87 827.83) rotate(-76.72)"/><circle class="cls-3" cx="516.1" cy="420.15" r="3.96" transform="translate(-121.5 229.48) rotate(-22.5)"/><circle class="cls-3" cx="481.08" cy="436.81" r="3.96"/><circle class="cls-3" cx="457.97" cy="423.13" r="3.96"/><circle class="cls-3" cx="430.62" cy="435.95" r="3.96"/><circle class="cls-3" cx="416.25" cy="439.38" r="3.96"/><path class="cls-7" d="M415.31,728.15s29.21-9,51.69-7.8,47.48,5.39,50.57,6.79,3.61,12.36,3.61,12.36-.52,11.37-26.93,12-80.59,0-82.3-1.76S410,732.55,415.31,728.15Z"/><path class="cls-10" d="M420.5,748.21s-3.23-1.13-3.37-4.22.84-6.44.84-8,2.95-3.8,5.9-5.06,14.05-4.92,19.81-5.48,26.41-2.67,34.7-1.83,26.69,5.2,32.45,7.31,6.18,9.69,4.49,12.08-11.38,5.62-19.38,5.9-48.05.42-56.19.7S420.5,748.21,420.5,748.21Z"/><path class="cls-17" d="M442,737.06a2,2,0,0,0-1.41,2.06c.09,1.69-.47,2.62,2.53,2.81s4.68-1,4.77-2.43S449.3,736.69,442,737.06Z"/><path class="cls-17" d="M479.85,731.89a2,2,0,0,0,.24,2.48c1.15,1.24,1.32,2.32,3.74.55s2.94-3.79,2.11-4.93S485.23,726.93,479.85,731.89Z"/><path class="cls-17" d="M488.1,736.1a2,2,0,0,0-1.73,1.79c-.19,1.68-.9,2.51,2,3.2s4.79-.23,5.12-1.6S495.36,737,488.1,736.1Z"/><path class="cls-17" d="M474.63,741a1.94,1.94,0,0,0-1.73,1.79c-.19,1.68-.9,2.51,2,3.19s4.79-.22,5.12-1.59S481.9,741.84,474.63,741Z"/><path class="cls-17" d="M502.35,733.92a2,2,0,0,0-1.73,1.8c-.19,1.68-.9,2.5,2,3.19s4.79-.23,5.12-1.6S509.62,734.78,502.35,733.92Z"/><path class="cls-17" d="M425,735.51a2,2,0,0,0-1.73,1.8c-.19,1.67-.9,2.5,2,3.19s4.79-.23,5.12-1.6S432.26,736.37,425,735.51Z"/><path class="cls-17" d="M451.64,731.1a2,2,0,0,0-1.4,2.06c.09,1.69-.47,2.63,2.52,2.81s4.69-1,4.78-2.43S459,730.73,451.64,731.1Z"/><path class="cls-17" d="M455.74,735.27a2,2,0,0,0-2.09,1.36c-.56,1.6-1.43,2.25,1.26,3.57s4.72.84,5.35-.42S462.63,737.72,455.74,735.27Z"/><path class="cls-7" d="M415.94,700.78s29.22-9,51.69-7.81,47.71,7.57,50.8,9,3.38,10.18,3.38,10.18-.52,11.37-26.92,12-80.6,0-82.3-1.76S410.6,705.17,415.94,700.78Z"/><path class="cls-14" d="M421.14,720.83s-3.23-1.13-3.37-4.22.84-6.44.84-8,2.95-3.8,5.9-5.06,14.05-4.92,19.81-5.48,26.4-2.67,34.69-1.82,26.69,5.19,32.45,7.3,6.18,9.69,4.5,12.08-11.38,5.62-19.39,5.9-48,.42-56.19.7S421.14,720.83,421.14,720.83Z"/><path class="cls-12" d="M415.94,672.46s29.22-9,51.69-7.8,47.71,7.57,50.8,9,3.38,10.17,3.38,10.17-.52,11.38-26.92,12-80.6,0-82.3-1.76S410.6,676.85,415.94,672.46Z"/><path class="cls-9" d="M521.1,707.84v37.78a3.76,3.76,0,0,0,3.77,3.77h53.5a11.75,11.75,0,0,0,5-1.14l13.28-6.32a3.75,3.75,0,0,0,2.15-3.4V701.71Z"/><path class="cls-10" d="M579.24,708.42h-58.4a.45.45,0,0,1-.14-.88l17.11-5.88a6.73,6.73,0,0,1,2.18-.36h59.54a.4.4,0,0,1,.13.77L583,707.79A11.73,11.73,0,0,1,579.24,708.42Z"/><path class="cls-13" d="M558.66,740h2.45s4-5,.91-6.25-4.28.8-4.22,2.21A22.72,22.72,0,0,0,558.66,740Z"/><path class="cls-13" d="M553.2,739.15l2.11-1.26s.89-6.29-2.4-5.83-3.28,2.87-2.51,4.05A22.93,22.93,0,0,0,553.2,739.15Z"/><path class="cls-13" d="M563.84,729.65l2.4.48s4.87-4.09,2.12-6-4.36,0-4.57,1.34A22.54,22.54,0,0,0,563.84,729.65Z"/><path class="cls-13" d="M552.37,720.34l-1.73,1.74s.69,6.32,3.77,5.06,2.47-3.59,1.43-4.54A22.64,22.64,0,0,0,552.37,720.34Z"/><path class="cls-13" d="M541.5,730l-2.34-.7s-5.24,3.6-2.68,5.71,4.34.47,4.68-.89A22.63,22.63,0,0,0,541.5,730Z"/><path class="cls-13" d="M576.79,737l1.46,2s6.36.24,5.56-3-3.19-3-4.29-2.08A23.23,23.23,0,0,0,576.79,737Z"/><path class="cls-13" d="M545.74,718.44l-2-1.32s-6,2-4.16,4.75,4,1.65,4.74.43A22,22,0,0,0,545.74,718.44Z"/><path class="cls-13" d="M529.56,720.92l-1.62,1.83s1,6.27,4,4.84,2.26-3.73,1.16-4.62A23,23,0,0,0,529.56,720.92Z"/><path class="cls-13" d="M530.05,739.5l0,2.45s4.88,4.08,6.23,1-.71-4.3-2.12-4.27A22.9,22.9,0,0,0,530.05,739.5Z"/><path class="cls-13" d="M577.18,717.49l.07.13a1.8,1.8,0,0,0,1.39,1c1.73.2,5.2.28,5-2.21-.27-3.31-2.68-3.43-3.9-2.73a14.81,14.81,0,0,0-2.16,1.67A1.8,1.8,0,0,0,577.18,717.49Z"/><path class="cls-13" d="M569.48,738.12l-.11.11a1.81,1.81,0,0,0-.5,1.61c.33,1.71,1.28,5,3.59,4.12,3.08-1.25,2.49-3.59,1.45-4.54a14.8,14.8,0,0,0-2.23-1.57A1.81,1.81,0,0,0,569.48,738.12Z"/><path class="cls-13" d="M587.05,727.5l.09.13a1.77,1.77,0,0,0,1.49.78c1.75,0,5.2-.36,4.7-2.8-.68-3.25-3.09-3.08-4.21-2.23a15.09,15.09,0,0,0-1.94,1.91A1.8,1.8,0,0,0,587.05,727.5Z"/><path class="cls-13" d="M589,734.56l-.05.15a1.79,1.79,0,0,0,.33,1.65c1.11,1.35,3.54,3.83,5.13,1.91,2.11-2.57.47-4.34-.9-4.68a14.74,14.74,0,0,0-2.71-.31A1.79,1.79,0,0,0,589,734.56Z"/><path class="cls-13" d="M560.26,720l.15,0a1.78,1.78,0,0,0,1.59-.55c1.19-1.29,3.31-4,1.18-5.34-2.83-1.74-4.36.13-4.51,1.54a15.81,15.81,0,0,0,.07,2.72A1.8,1.8,0,0,0,560.26,720Z"/><path class="cls-13" d="M589.38,714.87l.11.1a1.8,1.8,0,0,0,1.63.42c1.7-.41,5-1.53,3.94-3.79-1.39-3-3.7-2.3-4.61-1.22a16.55,16.55,0,0,0-1.45,2.3A1.81,1.81,0,0,0,589.38,714.87Z"/><path class="cls-12" d="M534.27,674.86v26.59a2.66,2.66,0,0,0,2.65,2.66h37.66a8.23,8.23,0,0,0,3.55-.81l9.35-4.44a2.66,2.66,0,0,0,1.52-2.4V670.54Z"/><path class="cls-10" d="M575.2,675.26H534.09a.32.32,0,0,1-.1-.62l12-4.14a5,5,0,0,1,1.53-.25h41.91a.28.28,0,0,1,.09.54l-11.73,4A8.17,8.17,0,0,1,575.2,675.26Z"/><path class="cls-18" d="M560.71,697.52h1.72s2.8-3.5.65-4.4-3,.56-3,1.55A16.79,16.79,0,0,0,560.71,697.52Z"/><path class="cls-18" d="M556.87,696.89l1.48-.88s.62-4.43-1.69-4.11-2.31,2-1.76,2.86A15.76,15.76,0,0,0,556.87,696.89Z"/><path class="cls-18" d="M564.36,690.21l1.69.33s3.43-2.88,1.49-4.18-3.07,0-3.22.94A16.21,16.21,0,0,0,564.36,690.21Z"/><path class="cls-18" d="M556.28,683.66l-1.22,1.22s.49,4.45,2.66,3.56,1.73-2.53,1-3.2A16,16,0,0,0,556.28,683.66Z"/><path class="cls-18" d="M548.63,690.47,547,690s-3.69,2.54-1.88,4,3,.33,3.29-.63A15.59,15.59,0,0,0,548.63,690.47Z"/><path class="cls-18" d="M573.47,695.41l1,1.39s4.47.16,3.92-2.11-2.25-2.08-3-1.46A16.68,16.68,0,0,0,573.47,695.41Z"/><path class="cls-18" d="M551.62,682.32l-1.45-.93s-4.25,1.41-2.93,3.34,2.84,1.16,3.34.31A16.58,16.58,0,0,0,551.62,682.32Z"/><path class="cls-18" d="M540.23,684.07l-1.15,1.28s.75,4.42,2.86,3.41,1.58-2.63.81-3.25A15.52,15.52,0,0,0,540.23,684.07Z"/><path class="cls-18" d="M540.57,697.15l0,1.72s3.43,2.87,4.38.73-.5-3-1.49-3A15.87,15.87,0,0,0,540.57,697.15Z"/><path class="cls-18" d="M573.75,681.65l0,.09a1.24,1.24,0,0,0,1,.68c1.22.13,3.67.19,3.52-1.56-.19-2.33-1.89-2.42-2.74-1.92a10.33,10.33,0,0,0-1.52,1.17A1.27,1.27,0,0,0,573.75,681.65Z"/><path class="cls-18" d="M568.33,696.17l-.08.08a1.25,1.25,0,0,0-.35,1.13c.23,1.21.9,3.56,2.53,2.9,2.16-.88,1.74-2.52,1-3.2a11.32,11.32,0,0,0-1.57-1.1A1.26,1.26,0,0,0,568.33,696.17Z"/><path class="cls-18" d="M580.69,688.7l.07.09a1.28,1.28,0,0,0,1,.55c1.23,0,3.66-.25,3.3-2-.47-2.29-2.17-2.17-3-1.58a10.79,10.79,0,0,0-1.36,1.35A1.26,1.26,0,0,0,580.69,688.7Z"/><path class="cls-18" d="M582,693.67l0,.1a1.27,1.27,0,0,0,.23,1.16c.78,1,2.5,2.7,3.61,1.34,1.49-1.8.33-3-.63-3.29a10.9,10.9,0,0,0-1.91-.22A1.28,1.28,0,0,0,582,693.67Z"/><path class="cls-18" d="M561.83,683.39l.11,0a1.26,1.26,0,0,0,1.12-.39c.84-.9,2.33-2.84.83-3.76-2-1.22-3.07.1-3.18,1.08a11.52,11.52,0,0,0,.06,1.92A1.24,1.24,0,0,0,561.83,683.39Z"/><path class="cls-18" d="M582.33,679.8l.08.08a1.27,1.27,0,0,0,1.15.29c1.19-.29,3.51-1.07,2.77-2.67-1-2.12-2.6-1.62-3.24-.86a10.11,10.11,0,0,0-1,1.63A1.25,1.25,0,0,0,582.33,679.8Z"/><g class="cls-19"><path class="cls-15" d="M524.57,404.29v32.86a4.34,4.34,0,0,0,4.34,4.34H609.7a13.58,13.58,0,0,0,5.8-1.31l15.27-7.27a4.34,4.34,0,0,0,2.48-3.92V397.24Z"/><path class="cls-4" d="M610.7,405H524.28a.52.52,0,0,1-.17-1l19.69-6.76a7.63,7.63,0,0,1,2.5-.42H634a.46.46,0,0,1,.15.89L615,404.23A13.23,13.23,0,0,1,610.7,405Z"/><path class="cls-4" d="M562.73,405s1.71,2.91,7.46,2.75,6.38-2.75,6.38-2.75S569.5,402.28,562.73,405Z"/></g><path class="cls-10" d="M419.81,804s3.23-17.56,24.51-20.61S474.75,804,474.75,804Z"/><polygon class="cls-14" points="514.85 803.99 532 772.78 539.17 776.34 534.11 788.03 551.62 769.56 569.2 775.33 555.42 788.63 566.2 788.63 568.84 792.45 550.64 803.99 514.85 803.99"/><path class="cls-10" d="M490,804s2.47-13.42,18.73-15.75S532,804,532,804Z"/><path class="cls-10" d="M461.84,804s1.92-13.3,15.1-15.07C497.39,786.18,495.7,804,495.7,804Z"/><path class="cls-3" d="M192.26,525.21s-5.71,3.45-4.95,7.91,5.64,7.41,10.94,4.29S200.16,524.12,192.26,525.21Z"/><path class="cls-16" d="M272.1,1028.37s-1.71-90.68,1.2-134.9c.39-5.84,5.34-23.26,6.49-47.63.52-10.9-1.14-27.54-.69-38.87,1.08-26.64.17-50-.28-60.3-1-24.07-4.62-40.76-10.75-65.57-4.6-18.63-94.28-24.15-101.78-11.63,0,0-11.7,26-20.87,84.91-1,6.56-2.59,19-4.34,33.57-.63,5.26-3.79,10.83-4.45,16.5-.82,7.08.85,14.32,0,21.45-1.79,15.85-3.47,31-4.67,41.91-1.1,10-4.52,9.48-6,12.64s2,8.95-.39,14.52c-1.93,4.47-4,9.18-5.22,11.62-10.32,20.84-30.61,88.88-30.61,88.88l38.51,12.59s42-90.91,47.18-106.56c19.65-59.13,21.5-75.3,34.32-111.41l12.1,61.22a78.46,78.46,0,0,1,1.48,17.22c-.09,3.78,0,8,.84,10.27s4.82,8.6,4.82,8.6-2.68,26.68-2.57,35.34c.35,26.19,2.72,108.39,2.72,108.39Z"/><path class="cls-3" d="M191.19,500.16s-7,2.61-8.25,11.87,6.8,20.77,18.36,17.8,9.68-20.23,7.4-24.35S199.07,498.72,191.19,500.16Z"/><path class="cls-5" d="M268,682c.65-9.51-7.11-44.65-7.58-54.28-.75-15.66,2.28-62.47-24.24-79.78-8-5.22-19.69-9.39-29.14-8-12.8,1.94-26.31,2.26-37.11,13.88-18.84,20.27-1.68,45.09-7.22,92.32-1.69,14.33-1.89,36.92,12.23,36.92C218.44,683.11,267.5,689.78,268,682Z"/><path class="cls-2" d="M195.48,522s-1.59,18-2.84,24.26c-.39,1.91,18.14,2.72,18-.13-.43-8.08-2.33-19.66-2.33-19.66Z"/><path class="cls-2" d="M197.65,493.79a13.5,13.5,0,0,0-7.49,15.15c2,9.19,4,13.79,9.39,17.18,5.66,3.53,15.59,5,20.52,2.26a11.67,11.67,0,0,0,5.35-13.19c-1.1-4.05-2.55-6.28-3.11-8-1.39-4.24-5.32-19.61-13.53-17.43A69.68,69.68,0,0,0,197.65,493.79Z"/><path class="cls-11" d="M222.37,515.22s1.2,2.34-1.88,3.17c-2.91.78-6-1.1-6-1.1Z"/><path class="cls-3" d="M205.58,512.55a.5.5,0,0,1-.39-.17.52.52,0,0,1,0-.73,12.43,12.43,0,0,1,3.7-2.36,2.09,2.09,0,0,1,2.53.71.51.51,0,0,1-.2.7.52.52,0,0,1-.71-.2s-.34-.47-1.34-.2a10.81,10.81,0,0,0-3.28,2.12A.53.53,0,0,1,205.58,512.55Z"/><path class="cls-3" d="M217.93,508.06a.55.55,0,0,1-.3-.09.52.52,0,0,1-.13-.72,2.67,2.67,0,0,1,3.4-1.05.52.52,0,1,1-.49.92c-1.13-.6-2,.66-2,.72A.54.54,0,0,1,217.93,508.06Z"/><path class="cls-3" d="M204.2,508.59a.52.52,0,0,1-.34-.91,18.86,18.86,0,0,1,5.54-3,.52.52,0,0,1,.33,1,18.26,18.26,0,0,0-5.18,2.82A.53.53,0,0,1,204.2,508.59Z"/><path class="cls-3" d="M206.88,494.26s11.49,4.11,12.84,3.48S221.92,482,209.16,482C198.65,482,201.77,491.27,206.88,494.26Z"/><path class="cls-3" d="M220.8,504.43a.54.54,0,0,1-.21-.05,13.77,13.77,0,0,0-3.48-.91.51.51,0,0,1-.44-.58.52.52,0,0,1,.59-.45,15,15,0,0,1,3.75,1,.52.52,0,0,1,.27.69A.54.54,0,0,1,220.8,504.43Z"/><path class="cls-2" d="M194.5,512.7a4.85,4.85,0,0,0-3.1-2c-1.35-.22-3,.12-3.55,2.61-1.12,4.64,7,10.32,8.59,6.71C197.58,517.54,195.72,514.37,194.5,512.7Z"/><path class="cls-20" d="M194.51,519.77h-.12a.53.53,0,0,1-.39-.63c.07-.32.12-1.1-.22-1.27a1.85,1.85,0,0,0-1,0,1.84,1.84,0,0,1-1.78-.22,5.64,5.64,0,0,1-1.54-3.43,2.16,2.16,0,0,1,1.24-2.1.52.52,0,1,1,.4,1,1.13,1.13,0,0,0-.6,1.11A4.64,4.64,0,0,0,191.7,517c.11.1.53,0,.84-.06a2.55,2.55,0,0,1,1.7,0c.94.47.93,1.75.78,2.43A.53.53,0,0,1,194.51,519.77Z"/><path class="cls-3" d="M212.32,496.36s-12.38,15.85-17.18,18.29-3.36,9.8-8.8,7.31c-2.6-1.19-10.44-13.89-7.69-25.76,1.24-5.31,10.85-15.62,20.9-14.57C212.55,483,215.14,490,212.32,496.36Z"/><path class="cls-20" d="M208.76,530h-.07a27.38,27.38,0,0,1-9.4-3.37.52.52,0,0,1,.52-.9,26.91,26.91,0,0,0,9,3.24.52.52,0,0,1-.06,1Z"/><path class="cls-20" d="M215.16,508.82c0-.35.28-.57.55-.34a12.79,12.79,0,0,0,4,2.2c2.73.93,3.18,2.78.19,3.38s-3.33.42-3.92-1.37A30.42,30.42,0,0,1,215.16,508.82Z"/><path class="cls-3" d="M199.52,511a5,5,0,0,0,.74,4.9,7.41,7.41,0,0,1,1.33,4.55c0,1.27-.86,2.7-1.37,2.25s-.29-2.67-1.31-3.68-6.23-3.59-6.86-6S197.16,510,199.52,511Z"/><path class="cls-11" d="M235.57,1012a.79.79,0,0,1-.78-.77v-.07l-.07-6.19a.78.78,0,0,1,.78-.79h0a.77.77,0,0,1,.78.77l.07,6.27a.77.77,0,0,1-.77.78Zm-.13-12.52a.78.78,0,0,1-.78-.77l-.07-6.26a.77.77,0,0,1,.77-.79.79.79,0,0,1,.79.77l.07,6.26a.79.79,0,0,1-.78.79ZM235.3,987a.79.79,0,0,1-.78-.77l-.06-6.26a.77.77,0,0,1,.77-.79h0a.79.79,0,0,1,.78.77l.06,6.26a.78.78,0,0,1-.77.79Zm-.13-12.52a.79.79,0,0,1-.78-.77l-.06-6.26a.79.79,0,0,1,.77-.79h0a.78.78,0,0,1,.78.78l.06,6.25a.77.77,0,0,1-.77.79Zm-.12-12.52a.78.78,0,0,1-.78-.77l-.06-6.25a.77.77,0,0,1,.77-.79h0a.79.79,0,0,1,.78.77l.06,6.25a.78.78,0,0,1-.77.79Zm-.12-12.51a.77.77,0,0,1-.78-.77l-.06-6.26a.79.79,0,0,1,.77-.79h0a.78.78,0,0,1,.78.78l.06,6.25a.77.77,0,0,1-.77.79Zm-.11-12.52a.77.77,0,0,1-.78-.77q0-3.25,0-6.26a.78.78,0,0,1,.77-.79h0a.79.79,0,0,1,.78.78q0,3,0,6.26a.77.77,0,0,1-.78.78Zm-.1-12.52a.77.77,0,0,1-.78-.77c0-2.3,0-4.4,0-6.26a.79.79,0,0,1,.78-.79h0a.8.8,0,0,1,.79.78c0,1.86,0,4,0,6.26a.77.77,0,0,1-.77.78Zm-.05-12.52h0a.78.78,0,0,1-.78-.78q0-3.3,0-6.25a.78.78,0,0,1,.78-.77h0a.77.77,0,0,1,.77.78q0,3,0,6.24A.78.78,0,0,1,234.67,911.87Zm.09-12.48h0a.78.78,0,0,1-.77-.79c0-2.25.07-4.32.11-6.25a.78.78,0,0,1,.78-.76h0a.77.77,0,0,1,.76.79c0,1.93-.08,4-.11,6.24A.79.79,0,0,1,234.76,899.39Zm.3-12.48h0a.78.78,0,0,1-.75-.81c.08-2.19.17-4.23.27-6.25a.78.78,0,0,1,.82-.74.79.79,0,0,1,.74.82c-.1,2-.19,4-.27,6.23A.78.78,0,0,1,235.06,886.91Zm.55-12.47a.77.77,0,0,1-.78-.74,30.54,30.54,0,0,0-1-6,.78.78,0,1,1,1.51-.39,32.3,32.3,0,0,1,1.09,6.29.79.79,0,0,1-.75.82Zm-2.79-12.13a.78.78,0,0,1-.75-.55l-.65-2.14c-.38-1.21-.77-2.48-1.18-3.83a.78.78,0,0,1,1.5-.46l1.17,3.84.65,2.13a.77.77,0,0,1-.52,1A.57.57,0,0,1,232.82,862.31Zm-3.58-12a.79.79,0,0,1-.75-.57c-.58-2.06-1.11-4-1.63-6a.78.78,0,0,1,1.52-.38c.51,2,1,4,1.61,6a.77.77,0,0,1-.54,1Zm-3.09-12.09a.79.79,0,0,1-.77-.61l0-.14q-.66-2.93-1.28-6a.79.79,0,0,1,.62-.92.78.78,0,0,1,.91.62c.41,2,.83,4,1.27,5.91l0,.18a.78.78,0,0,1-.6.93ZM223.7,826a.79.79,0,0,1-.77-.65c-.35-2-.68-4.09-1-6.19a.78.78,0,0,1,.66-.88.79.79,0,0,1,.89.65c.31,2.09.64,4.16,1,6.15a.79.79,0,0,1-.64.91Zm-1.86-12.36a.77.77,0,0,1-.77-.68c-.27-2.06-.52-4.15-.75-6.22a.78.78,0,0,1,1.55-.17c.23,2,.48,4.14.74,6.19a.78.78,0,0,1-.67.88Zm-1.37-12.42a.77.77,0,0,1-.77-.71c-.35-3.86-.49-6.24-.49-6.26a.78.78,0,1,1,1.55-.09s.14,2.37.49,6.21a.78.78,0,0,1-.71.85Z"/><path class="cls-16" d="M183.74,691.13s10.1-69.21,7.81-88.4S175,549.38,175,549.38s4.89-4.37,9.49-5c0,0,11.48,22.13,14.7,33.43H235s-8.39-31.44-13-36.39c0,0,5.42.32,12.24,5.29,0,0,11.9,21.82,14.81,34.58s9.34,59.71,11.36,72,4.67,34,4.67,34S195.49,707.64,183.74,691.13Z"/><path class="cls-2" d="M192.32,545.54c-1.28,6.12,18.18,20.13,22.73,14.39s1-16.48-2.15-17.55S193.72,538.84,192.32,545.54Z"/><path class="cls-3" d="M215.15,622.73a253,253,0,0,0,45.26,4c-.13-3.63-.12-8.63-.29-14.41l-85.9-5.4S186.53,617.31,215.15,622.73Z"/><path class="cls-11" d="M99.11,993.37a.78.78,0,0,1-.78-.78,1.07,1.07,0,0,1,.14-.49l.25-.63a.78.78,0,0,1,1-.43.77.77,0,0,1,.43,1l-.33.82A.79.79,0,0,1,99.11,993.37Zm2.68-6.65a.72.72,0,0,1-.29-.06.78.78,0,0,1-.44-1c.68-1.69,1.46-3.64,2.32-5.82a.78.78,0,1,1,1.45.58c-.86,2.18-1.65,4.13-2.32,5.82A.78.78,0,0,1,101.79,986.72Zm4.62-11.64a.71.71,0,0,1-.28-.06.77.77,0,0,1-.44-1c.72-1.85,1.49-3.8,2.28-5.82a.78.78,0,1,1,1.46.56l-2.29,5.83A.79.79,0,0,1,106.41,975.08ZM111,963.42a.92.92,0,0,1-.28,0,.78.78,0,0,1-.44-1c.73-1.91,1.49-3.86,2.25-5.84a.78.78,0,0,1,1.46.56c-.76,2-1.52,3.94-2.26,5.84A.78.78,0,0,1,111,963.42Zm4.5-11.68a.92.92,0,0,1-.28,0,.79.79,0,0,1-.45-1q1.11-2.91,2.22-5.85a.78.78,0,0,1,1-.46.8.8,0,0,1,.46,1c-.74,2-1.48,3.92-2.22,5.85A.78.78,0,0,1,115.47,951.74ZM119.88,940a.84.84,0,0,1-.27,0,.78.78,0,0,1-.46-1c.73-2,1.45-3.92,2.16-5.86a.78.78,0,1,1,1.47.53c-.71,1.94-1.44,3.91-2.17,5.88A.78.78,0,0,1,119.88,940Zm4.3-11.75a.86.86,0,0,1-.27,0,.78.78,0,0,1-.47-1q1.08-3,2.09-5.9a.79.79,0,0,1,1-.48.78.78,0,0,1,.48,1q-1,2.88-2.09,5.9A.77.77,0,0,1,124.18,928.27Zm4.12-11.82a.73.73,0,0,1-.25,0,.78.78,0,0,1-.49-1c.71-2.12,1.37-4.12,1.95-5.94A.78.78,0,0,1,131,910c-.59,1.83-1.24,3.83-2,6A.78.78,0,0,1,128.3,916.45Zm3.77-11.94-.21,0a.77.77,0,0,1-.54-1c.68-2.38,1.2-4.41,1.53-6a.79.79,0,0,1,.93-.6.78.78,0,0,1,.6.92c-.34,1.65-.87,3.71-1.56,6.13A.78.78,0,0,1,132.07,904.51Zm2.83-12.17a.76.76,0,0,1-.21,0,.77.77,0,0,1-.54-1,35.23,35.23,0,0,1,2.19-6,.78.78,0,0,1,1-.38.79.79,0,0,1,.38,1,34.34,34.34,0,0,0-2.1,5.71A.78.78,0,0,1,134.9,892.34ZM140,881a.79.79,0,0,1-.39-.11.78.78,0,0,1-.29-1.06,37.65,37.65,0,0,0,2.71-5.47.78.78,0,1,1,1.46.56,39.66,39.66,0,0,1-2.82,5.69A.76.76,0,0,1,140,881Zm4.43-11.57h-.15a.78.78,0,0,1-.62-.91,55.81,55.81,0,0,0,.74-6.09.78.78,0,0,1,1.56.1,53.74,53.74,0,0,1-.77,6.27A.78.78,0,0,1,144.46,869.47Zm.94-12.41h0a.77.77,0,0,1-.78-.78c0-2.06.06-4.18.17-6.28a.78.78,0,1,1,1.56.08c-.11,2.08-.17,4.17-.17,6.2A.78.78,0,0,1,145.4,857.06ZM146,844.6H146a.79.79,0,0,1-.7-.86c.2-2,.45-4.12.75-6.22a.78.78,0,0,1,1.55.21c-.3,2.09-.55,4.17-.74,6.17A.78.78,0,0,1,146,844.6Zm1.72-12.36h-.14a.77.77,0,0,1-.63-.9c.34-2,.72-4,1.16-6.16a.78.78,0,1,1,1.53.31c-.44,2.17-.81,4.17-1.16,6.12A.76.76,0,0,1,147.76,832.24ZM150.2,820a.44.44,0,0,1-.16,0,.79.79,0,0,1-.6-.93q.67-3,1.37-6.1a.78.78,0,0,1,1.53.35q-.71,3.06-1.37,6.09A.79.79,0,0,1,150.2,820ZM153,807.82l-.18,0a.77.77,0,0,1-.58-.93q.69-3,1.38-6.09a.78.78,0,0,1,1.52.34q-.69,3.07-1.38,6.1A.79.79,0,0,1,153,807.82Zm2.71-12.19h-.16a.8.8,0,0,1-.61-.93c.46-2.14.86-4.14,1.23-6.1a.78.78,0,0,1,1.53.29c-.37,2-.78,4-1.23,6.13A.78.78,0,0,1,155.69,795.63ZM158,783.37h-.13a.78.78,0,0,1-.64-.9c.37-2.26.67-4.33.89-6.14a.78.78,0,1,1,1.55.19c-.22,1.83-.53,3.92-.9,6.21A.79.79,0,0,1,158,783.37ZM159.4,771h0a.77.77,0,0,1-.77-.79c0-.26,0-.51,0-.76a26.05,26.05,0,0,0-.5-5.28.78.78,0,0,1,.62-.91.76.76,0,0,1,.91.62,27.64,27.64,0,0,1,.53,5.57c0,.26,0,.52,0,.79A.78.78,0,0,1,159.4,771Zm-1.64-12.32A.79.79,0,0,1,157,758a50.73,50.73,0,0,1-.32-6.09v-.22a.78.78,0,1,1,1.56,0v.23a49.46,49.46,0,0,0,.31,5.89.78.78,0,0,1-.68.87Zm-.09-12.46h0a.78.78,0,0,1-.73-.83l0-.26c.13-2.07.3-4.08.48-6a.78.78,0,0,1,1.56.15c-.19,1.9-.35,3.89-.49,5.93v.26A.79.79,0,0,1,157.67,746.19Zm1.21-12.42h-.1a.78.78,0,0,1-.67-.88c.29-2.18.63-4.26,1-6.2a.78.78,0,1,1,1.53.29c-.36,1.91-.68,4-1,6.12A.79.79,0,0,1,158.88,733.77Zm2.34-12.26a.71.71,0,0,1-.2,0,.78.78,0,0,1-.55-1,31.58,31.58,0,0,1,2.08-6.06.78.78,0,1,1,1.38.74h0a30,30,0,0,0-2,5.72A.79.79,0,0,1,161.22,721.51Z"/><path class="cls-2" d="M172.14,564.75s103.33,16.32,115.7,14.76c8-1,56.7-48.85,82.62-66.18,8.3-5.55,13.36,1.22,11,8.68-9.26,29.35-57.34,90.46-87.44,95-37.74,5.72-123.62-11.48-123.62-11.48Z"/><path class="cls-5" d="M246.29,574.24c-28.7-4.08-74.45-9.49-74.45-9.49l-1.44,40.8s39.15,14.82,72.55,17.18C250.62,605.29,247.93,579.71,246.29,574.24Z"/><path class="cls-2" d="M408.78,493s2.77-1,1.62-3-3-.48-3-.48-.09-1.46-.79-1.9-6.54,1.79-7.66,2.37-10.91,5.24-10.91,5.24,1.29-1.77,1.78-2.61,3.83-2.6,3.1-5.18-2.44-1.31-3.92.69-6.39,4.13-8.4,7-4.44,13-5.79,14.56a1.17,1.17,0,0,0-.2.34c-2.26,2.16-10.71,7.31-15.31,11.43-2.61,2.34,13.43,18.56,16.46,13.83,4.21-6.57,11-21.94,11.15-22,1.4-.22,6.95-3.9,9.08-4.78a69.34,69.34,0,0,0,8.67-4.84c2.16-1.45,4.33-1.65,3.63-3.17s-8,1.44-8,1.44,9.18-5.7,9.81-6.85S409.58,493,408.78,493Z"/><path class="cls-3" d="M245.16,617.89a1.19,1.19,0,0,1-.55-.12,1.29,1.29,0,0,1-.63-1.72s2.05-4.66,2.84-16c.8-11.48-1.44-24.09-1.46-24.21a1.29,1.29,0,0,1,1-1.51,1.31,1.31,0,0,1,1.52,1,115.89,115.89,0,0,1,1.49,24.85c-.82,11.88-3,16.68-3.07,16.88A1.3,1.3,0,0,1,245.16,617.89Z"/><path class="cls-3" d="M209.78,791.39a1.14,1.14,0,0,1-.41-.07,1.3,1.3,0,0,1-.83-1.64c6.73-20.17,19.68-38.51,19.81-38.69a1.3,1.3,0,1,1,2.12,1.51c-.13.18-12.86,18.21-19.46,38A1.29,1.29,0,0,1,209.78,791.39Z"/><polygon class="cls-7" points="907.91 1032.79 1032 994.13 1025.09 410.51 776 411.41 697.47 441.58 907.91 1032.79"/><rect class="cls-6" x="700.97" y="440.36" width="203.43" height="593.65" transform="translate(1614.04 1464.81) rotate(179.32)"/><path class="cls-3" d="M700.68,741.49H701l203.41-2.41a3.11,3.11,0,1,0-.08-6.22l-203.41,2.4a3.12,3.12,0,0,0-.26,6.22Z"/><rect class="cls-8" x="879.9" y="628.5" width="15.08" height="95.95" transform="translate(1782.83 1342.4) rotate(179.32)"/><rect class="cls-8" x="881.36" y="751.85" width="15.08" height="95.95" transform="translate(1787.2 1589.08) rotate(179.32)"/><rect class="cls-21" x="785.24" y="464.36" width="29.47" height="87.04" transform="translate(1605.9 1006.26) rotate(179.32)"/><circle class="cls-15" cx="92.95" cy="602.54" r="5.42" transform="translate(-225.53 82.67) rotate(-22.72)"/><rect class="cls-15" x="91.64" y="581.99" width="2.61" height="15.85"/><polygon class="cls-15" points="92.97 588.62 89.03 585.78 90.55 583.66 92.92 585.36 95.26 583.55 96.86 585.62 92.97 588.62"/><polygon class="cls-15" points="92.99 594.93 87.15 590.75 88.68 588.63 92.93 591.68 97.13 588.43 98.73 590.5 92.99 594.93"/><rect class="cls-15" x="82.87" y="585.54" width="2.61" height="15.85" transform="translate(-388.63 225.03) rotate(-44)"/><polygon class="cls-15" points="78.48 593.21 78.11 590.62 80.99 590.2 81.42 587.27 84 587.65 83.29 592.5 78.48 593.21"/><polygon class="cls-15" points="80.59 598.08 80.21 595.5 85.39 594.74 86.15 589.48 88.74 589.86 87.69 597.04 80.59 598.08"/><rect class="cls-15" x="79.02" y="594.18" width="2.61" height="15.85" transform="translate(-524.21 661.37) rotate(-88)"/><polygon class="cls-15" points="76.06 605.87 73.99 604.28 75.77 601.97 74.04 599.57 76.16 598.04 79.03 602.03 76.06 605.87"/><polygon class="cls-15" points="80.96 607.92 78.89 606.32 82.09 602.18 78.99 597.87 81.11 596.34 85.34 602.23 80.96 607.92"/><rect class="cls-15" x="75.64" y="609.68" width="15.85" height="2.61" transform="translate(-387.37 212.86) rotate(-42)"/><polygon class="cls-15" points="80.52 616.96 80.19 614.06 77.28 613.53 77.75 610.96 82.58 611.84 83.11 616.67 80.52 616.96"/><polygon class="cls-15" points="85.46 615.02 84.88 609.82 79.66 608.87 80.12 606.3 87.26 607.6 88.06 614.74 85.46 615.02"/><rect class="cls-15" x="84.14" y="613.83" width="15.85" height="2.61" transform="translate(-527.99 664.06) rotate(-86)"/><polygon class="cls-15" points="94.02 621.54 91.78 619.69 89.31 621.33 87.86 619.15 91.94 616.43 95.69 619.53 94.02 621.54"/><polygon class="cls-15" points="96.23 616.72 92.2 613.38 87.78 616.33 86.33 614.15 92.37 610.13 97.9 614.71 96.23 616.72"/><rect class="cls-15" x="99.75" y="604.29" width="2.61" height="15.85" transform="translate(-369.88 208.19) rotate(-40)"/><polygon class="cls-15" points="103.38 618.58 100.83 618.02 101.88 613.23 106.72 612.86 106.92 615.47 104.01 615.69 103.38 618.58"/><polygon class="cls-15" points="98.81 616.04 96.26 615.49 97.8 608.4 104.96 607.85 105.16 610.46 99.94 610.85 98.81 616.04"/><rect class="cls-15" x="104.19" y="595.94" width="2.61" height="15.85" transform="translate(-506.08 645.66) rotate(-84)"/><polygon class="cls-15" points="109.37 608.2 106.79 604.03 110.02 600.4 111.97 602.13 110.04 604.31 111.59 606.83 109.37 608.2"/><polygon class="cls-15" points="104.32 609.55 100.51 603.38 105.28 598.02 107.23 599.75 103.75 603.66 106.54 608.18 104.32 609.55"/><rect class="cls-15" x="94.97" y="593.46" width="15.85" height="2.61" transform="translate(-344.36 189.43) rotate(-38)"/><polygon class="cls-15" points="108.69 595.2 103.94 593.99 103.74 589.14 106.35 589.03 106.47 591.94 109.34 592.67 108.69 595.2"/><polygon class="cls-15" points="106 599.68 98.97 597.89 98.67 590.72 101.28 590.61 101.5 595.84 106.64 597.15 106 599.68"/><circle class="cls-15" cx="124.4" cy="504.26" r="7.75"/><rect class="cls-15" x="122.53" y="474.88" width="3.74" height="22.66"/><polygon class="cls-15" points="124.44 484.35 118.8 480.3 120.97 477.26 124.36 479.69 127.71 477.1 129.99 480.06 124.44 484.35"/><polygon class="cls-15" points="124.46 493.38 116.12 487.4 118.3 484.37 124.38 488.73 130.38 484.08 132.67 487.04 124.46 493.38"/><rect class="cls-15" x="109.99" y="479.95" width="3.74" height="22.66" transform="translate(-309.88 215.58) rotate(-44)"/><polygon class="cls-15" points="103.72 490.92 103.18 487.22 107.3 486.62 107.91 482.43 111.61 482.96 110.59 489.91 103.72 490.92"/><polygon class="cls-15" points="106.73 497.89 106.19 494.19 113.59 493.1 114.69 485.59 118.38 486.13 116.89 496.4 106.73 497.89"/><rect class="cls-15" x="104.49" y="492.3" width="3.74" height="22.66" transform="translate(-400.68 592.35) rotate(-88)"/><polygon class="cls-15" points="100.25 509.03 97.3 506.75 99.84 503.45 97.37 500.01 100.4 497.83 104.5 503.53 100.25 509.03"/><polygon class="cls-15" points="107.26 511.95 104.3 509.67 108.87 503.75 104.44 497.58 107.47 495.4 113.53 503.82 107.26 511.95"/><rect class="cls-15" x="99.65" y="514.48" width="22.66" height="3.74" transform="matrix(0.74, -0.67, 0.67, 0.74, -317, 206.89)"/><polygon class="cls-15" points="106.63 524.88 106.17 520.74 102 519.98 102.67 516.3 109.57 517.56 110.34 524.46 106.63 524.88"/><polygon class="cls-15" points="113.7 522.11 112.87 514.68 105.4 513.32 106.06 509.64 116.27 511.5 117.41 521.7 113.7 522.11"/><rect class="cls-15" x="111.81" y="520.4" width="22.66" height="3.74" transform="translate(-406.45 608.68) rotate(-86)"/><polygon class="cls-15" points="125.93 531.44 122.73 528.78 119.2 531.13 117.13 528.02 122.97 524.13 128.32 528.56 125.93 531.44"/><polygon class="cls-15" points="129.1 524.54 123.34 519.76 117.02 523.98 114.95 520.87 123.58 515.11 131.48 521.66 129.1 524.54"/><rect class="cls-15" x="134.13" y="506.76" width="3.74" height="22.66" transform="translate(-301.2 208.63) rotate(-40)"/><polygon class="cls-15" points="139.32 527.2 135.67 526.4 137.17 519.55 144.09 519.02 144.38 522.75 140.23 523.06 139.32 527.2"/><polygon class="cls-15" points="132.78 523.57 129.13 522.77 131.34 512.64 141.58 511.86 141.86 515.58 134.4 516.15 132.78 523.57"/><rect class="cls-15" x="140.48" y="494.82" width="3.74" height="22.66" transform="translate(-375.91 594.82) rotate(-84)"/><polygon class="cls-15" points="147.89 512.36 144.2 506.39 148.82 501.2 151.61 503.68 148.84 506.79 151.07 510.39 147.89 512.36"/><polygon class="cls-15" points="140.66 514.29 135.21 505.46 142.03 497.79 144.82 500.27 139.85 505.87 143.84 512.33 140.66 514.29"/><rect class="cls-15" x="127.29" y="491.28" width="22.66" height="3.74" transform="translate(-274.22 189.88) rotate(-38)"/><polygon class="cls-15" points="146.92 493.77 140.12 492.04 139.83 485.09 143.57 484.94 143.74 489.1 147.84 490.15 146.92 493.77"/><polygon class="cls-15" points="143.06 500.18 133.01 497.61 132.59 487.36 136.32 487.2 136.63 494.68 143.99 496.56 143.06 500.18"/><rect class="cls-1" width="1920" height="1080"/></svg>